<?xml version="1.0" encoding="UTF-8" standalone="no"?>
<!DOCTYPE svg PUBLIC "-//W3C//DTD SVG 1.1//EN"
 "http://www.w3.org/Graphics/SVG/1.1/DTD/svg11.dtd">
<!-- Generated by graphviz version 6.0.1 (20220911.1526)
 -->
<!-- Pages: 1 -->
<svg width="797pt" height="205pt"
 viewBox="0.00 0.00 796.74 205.48" xmlns="http://www.w3.org/2000/svg" xmlns:xlink="http://www.w3.org/1999/xlink">
<g id="graph0" class="graph" transform="scale(1 1) rotate(0) translate(4 201.48)">
<polygon fill="white" stroke="none" points="-4,4 -4,-201.48 792.74,-201.48 792.74,4 -4,4"/>
<!-- 1 -->
<g id="node1" class="node">
<title>1</title>
<polygon fill="lightgray" stroke="black" points="145.37,-197.48 124.37,-197.48 124.37,-179.48 145.37,-179.48 145.37,-197.48"/>
<text text-anchor="middle" x="134.87" y="-186.28" font-family="Times New Roman,serif" font-size="9.00">1</text>
</g>
<!-- click2 -->
<g id="node11" class="node">
<title>click2</title>
<ellipse fill="lightblue" stroke="black" cx="170.87" cy="-116.61" rx="26.74" ry="26.74"/>
<text text-anchor="middle" x="170.87" y="-114.41" font-family="Times New Roman,serif" font-size="9.00">click2</text>
</g>
<!-- 1&#45;&gt;click2 -->
<g id="edge1" class="edge">
<title>1&#45;&gt;click2</title>
<path fill="none" stroke="red" stroke-width="0.5" d="M139,-179.47C142.78,-172.13 148.63,-160.77 154.29,-149.78"/>
<polygon fill="red" stroke="red" stroke-width="0.5" points="157.49,-151.23 158.96,-140.73 151.26,-148.02 157.49,-151.23"/>
</g>
<!-- click4 -->
<g id="node13" class="node">
<title>click4</title>
<ellipse fill="lightblue" stroke="black" cx="26.87" cy="-116.61" rx="26.74" ry="26.74"/>
<text text-anchor="middle" x="26.87" y="-114.41" font-family="Times New Roman,serif" font-size="9.00">click4</text>
</g>
<!-- 1&#45;&gt;click4 -->
<g id="edge2" class="edge">
<title>1&#45;&gt;click4</title>
<path fill="none" stroke="green" stroke-width="0.24" stroke-dasharray="1,5" d="M123.98,-181.17C109.74,-172.84 84.11,-157.57 62.87,-143.48 60.94,-142.2 58.97,-140.87 56.99,-139.5"/>
<polygon fill="green" stroke="green" stroke-width="0.24" points="58.59,-136.35 48.39,-133.47 54.57,-142.08 58.59,-136.35"/>
</g>
<!-- click7 -->
<g id="node16" class="node">
<title>click7</title>
<ellipse fill="lightblue" stroke="black" cx="242.87" cy="-116.61" rx="26.74" ry="26.74"/>
<text text-anchor="middle" x="242.87" y="-114.41" font-family="Times New Roman,serif" font-size="9.00">click7</text>
</g>
<!-- 1&#45;&gt;click7 -->
<g id="edge13" class="edge">
<title>1&#45;&gt;click7</title>
<path fill="none" stroke="green" stroke-width="0.3" d="M145.76,-181.17C160,-172.84 185.63,-157.57 206.87,-143.48 208.8,-142.2 210.77,-140.87 212.75,-139.5"/>
<polygon fill="green" stroke="green" stroke-width="0.3" points="215.17,-142.08 221.35,-133.47 211.15,-136.35 215.17,-142.08"/>
</g>
<!-- click8 -->
<g id="node17" class="node">
<title>click8</title>
<ellipse fill="lightblue" stroke="black" cx="98.87" cy="-116.61" rx="26.74" ry="26.74"/>
<text text-anchor="middle" x="98.87" y="-114.41" font-family="Times New Roman,serif" font-size="9.00">click8</text>
</g>
<!-- 1&#45;&gt;click8 -->
<g id="edge3" class="edge">
<title>1&#45;&gt;click8</title>
<path fill="none" stroke="red" stroke-width="0.21" stroke-dasharray="1,5" d="M130.74,-179.47C126.96,-172.13 121.11,-160.77 115.45,-149.78"/>
<polygon fill="red" stroke="red" stroke-width="0.21" points="118.48,-148.02 110.78,-140.73 112.25,-151.23 118.48,-148.02"/>
</g>
<!-- 2 -->
<g id="node2" class="node">
<title>2</title>
<polygon fill="lightgray" stroke="black" points="37.37,-197.48 16.37,-197.48 16.37,-179.48 37.37,-179.48 37.37,-197.48"/>
<text text-anchor="middle" x="26.87" y="-186.28" font-family="Times New Roman,serif" font-size="9.00">2</text>
</g>
<!-- 2&#45;&gt;click4 -->
<g id="edge4" class="edge">
<title>2&#45;&gt;click4</title>
<path fill="none" stroke="green" stroke-width="0.65" stroke-dasharray="1,5" d="M26.87,-179.47C26.87,-172.97 26.87,-163.34 26.87,-153.59"/>
<polygon fill="green" stroke="green" stroke-width="0.65" points="30.37,-153.52 26.87,-143.52 23.37,-153.52 30.37,-153.52"/>
</g>
<!-- 3 -->
<g id="node3" class="node">
<title>3</title>
<polygon fill="lightgray" stroke="black" points="639.37,-125.61 618.37,-125.61 618.37,-107.61 639.37,-107.61 639.37,-125.61"/>
<text text-anchor="middle" x="628.87" y="-114.41" font-family="Times New Roman,serif" font-size="9.00">3</text>
</g>
<!-- click3 -->
<g id="node12" class="node">
<title>click3</title>
<ellipse fill="lightblue" stroke="black" cx="628.87" cy="-26.87" rx="26.74" ry="26.74"/>
<text text-anchor="middle" x="628.87" y="-24.67" font-family="Times New Roman,serif" font-size="9.00">click3</text>
</g>
<!-- 3&#45;&gt;click3 -->
<g id="edge5" class="edge">
<title>3&#45;&gt;click3</title>
<path fill="none" stroke="green" stroke-width="0.24" d="M628.87,-107.51C628.87,-97.63 628.87,-80.25 628.87,-64.24"/>
<polygon fill="green" stroke="green" stroke-width="0.24" points="632.37,-64.02 628.87,-54.02 625.37,-64.02 632.37,-64.02"/>
</g>
<!-- 4 -->
<g id="node4" class="node">
<title>4</title>
<polygon fill="lightgray" stroke="black" points="772.37,-197.48 751.37,-197.48 751.37,-179.48 772.37,-179.48 772.37,-197.48"/>
<text text-anchor="middle" x="761.87" y="-186.28" font-family="Times New Roman,serif" font-size="9.00">4</text>
</g>
<!-- click6 -->
<g id="node15" class="node">
<title>click6</title>
<ellipse fill="lightblue" stroke="black" cx="761.87" cy="-116.61" rx="26.74" ry="26.74"/>
<text text-anchor="middle" x="761.87" y="-114.41" font-family="Times New Roman,serif" font-size="9.00">click6</text>
</g>
<!-- 4&#45;&gt;click6 -->
<g id="edge6" class="edge">
<title>4&#45;&gt;click6</title>
<path fill="none" stroke="green" stroke-width="0.72" stroke-dasharray="1,5" d="M761.87,-179.47C761.87,-172.97 761.87,-163.34 761.87,-153.59"/>
<polygon fill="green" stroke="green" stroke-width="0.72" points="765.37,-153.52 761.87,-143.52 758.37,-153.52 765.37,-153.52"/>
</g>
<!-- 5 -->
<g id="node5" class="node">
<title>5</title>
<polygon fill="lightgray" stroke="black" points="678.37,-125.61 657.37,-125.61 657.37,-107.61 678.37,-107.61 678.37,-125.61"/>
<text text-anchor="middle" x="667.87" y="-114.41" font-family="Times New Roman,serif" font-size="9.00">5</text>
</g>
<!-- 5&#45;&gt;click3 -->
<g id="edge7" class="edge">
<title>5&#45;&gt;click3</title>
<path fill="none" stroke="red" stroke-width="0.11" d="M664.27,-107.51C659.61,-97.02 651.18,-78.06 643.72,-61.28"/>
<polygon fill="red" stroke="red" stroke-width="0.11" points="646.74,-59.45 639.48,-51.73 640.34,-62.29 646.74,-59.45"/>
</g>
<!-- 6 -->
<g id="node6" class="node">
<title>6</title>
<polygon fill="lightgray" stroke="black" points="391.37,-197.48 370.37,-197.48 370.37,-179.48 391.37,-179.48 391.37,-197.48"/>
<text text-anchor="middle" x="380.87" y="-186.28" font-family="Times New Roman,serif" font-size="9.00">6</text>
</g>
<!-- click5 -->
<g id="node14" class="node">
<title>click5</title>
<ellipse fill="lightblue" stroke="black" cx="314.87" cy="-116.61" rx="26.74" ry="26.74"/>
<text text-anchor="middle" x="314.87" y="-114.41" font-family="Times New Roman,serif" font-size="9.00">click5</text>
</g>
<!-- 6&#45;&gt;click5 -->
<g id="edge8" class="edge">
<title>6&#45;&gt;click5</title>
<path fill="none" stroke="green" stroke-width="0.14" stroke-dasharray="1,5" d="M373.3,-179.47C365.22,-170.92 351.99,-156.91 340.16,-144.39"/>
<polygon fill="green" stroke="green" stroke-width="0.14" points="342.45,-141.71 333.04,-136.84 337.36,-146.51 342.45,-141.71"/>
</g>
<!-- 6&#45;&gt;click7 -->
<g id="edge9" class="edge">
<title>6&#45;&gt;click7</title>
<path fill="none" stroke="green" stroke-width="0.34" stroke-dasharray="1,5" d="M370.09,-183.71C351.07,-176.86 310.59,-161.44 278.87,-143.48 276.64,-142.22 274.39,-140.85 272.15,-139.42"/>
<polygon fill="green" stroke="green" stroke-width="0.34" points="273.94,-136.4 263.69,-133.72 270.02,-142.21 273.94,-136.4"/>
</g>
<!-- click9 -->
<g id="node18" class="node">
<title>click9</title>
<ellipse fill="lightblue" stroke="black" cx="412.87" cy="-26.87" rx="26.74" ry="26.74"/>
<text text-anchor="middle" x="412.87" y="-24.67" font-family="Times New Roman,serif" font-size="9.00">click9</text>
</g>
<!-- 6&#45;&gt;click9 -->
<g id="edge16" class="edge">
<title>6&#45;&gt;click9</title>
<path fill="none" stroke="red" stroke-width="0.53" stroke-dasharray="1,5" d="M388.75,-179.19C396.05,-170.9 406.44,-157.4 410.87,-143.48 419.05,-117.77 419.19,-87.18 417.48,-63.93"/>
<polygon fill="red" stroke="red" stroke-width="0.53" points="420.95,-63.46 416.58,-53.81 413.98,-64.08 420.95,-63.46"/>
</g>
<!-- 181 -->
<g id="node20" class="node">
<title>181</title>
<ellipse fill="white" stroke="black" cx="380.87" cy="-116.61" rx="21.43" ry="21.43"/>
<text text-anchor="middle" x="380.87" y="-114.41" font-family="Times New Roman,serif" font-size="9.00">181</text>
</g>
<!-- 6&#45;&gt;181 -->
<g id="edge17" class="edge">
<title>6&#45;&gt;181</title>
<path fill="none" stroke="green" stroke-width="0.33" d="M380.87,-179.47C380.87,-171.78 380.87,-159.69 380.87,-148.22"/>
<polygon fill="green" stroke="green" stroke-width="0.33" points="384.37,-148.02 380.87,-138.02 377.37,-148.02 384.37,-148.02"/>
</g>
<!-- 182 -->
<g id="node21" class="node">
<title>182</title>
<ellipse fill="white" stroke="black" cx="518.87" cy="-116.61" rx="21.43" ry="21.43"/>
<text text-anchor="middle" x="518.87" y="-114.41" font-family="Times New Roman,serif" font-size="9.00">182</text>
</g>
<!-- 6&#45;&gt;182 -->
<g id="edge20" class="edge">
<title>6&#45;&gt;182</title>
<path fill="none" stroke="green" stroke-width="0.32" d="M391.4,-184.34C411.17,-178.19 454.85,-163.4 487.87,-143.48 490.54,-141.87 493.23,-140.03 495.83,-138.1"/>
<polygon fill="green" stroke="green" stroke-width="0.32" points="498.16,-140.72 503.8,-131.76 493.8,-135.25 498.16,-140.72"/>
</g>
<!-- 7 -->
<g id="node7" class="node">
<title>7</title>
<polygon fill="lightgray" stroke="black" points="325.37,-197.48 304.37,-197.48 304.37,-179.48 325.37,-179.48 325.37,-197.48"/>
<text text-anchor="middle" x="314.87" y="-186.28" font-family="Times New Roman,serif" font-size="9.00">7</text>
</g>
<!-- 7&#45;&gt;click5 -->
<g id="edge12" class="edge">
<title>7&#45;&gt;click5</title>
<path fill="none" stroke="green" stroke-width="0.12" d="M314.87,-179.47C314.87,-172.97 314.87,-163.34 314.87,-153.59"/>
<polygon fill="green" stroke="green" stroke-width="0.12" points="318.37,-153.52 314.87,-143.52 311.37,-153.52 318.37,-153.52"/>
</g>
<!-- 8 -->
<g id="node8" class="node">
<title>8</title>
<polygon fill="lightgray" stroke="black" points="717.37,-125.61 696.37,-125.61 696.37,-107.61 717.37,-107.61 717.37,-125.61"/>
<text text-anchor="middle" x="706.87" y="-114.41" font-family="Times New Roman,serif" font-size="9.00">8</text>
</g>
<!-- 8&#45;&gt;click3 -->
<g id="edge10" class="edge">
<title>8&#45;&gt;click3</title>
<path fill="none" stroke="red" stroke-width="0.11" stroke-dasharray="1,5" d="M700.76,-107.3C696.9,-102.14 691.73,-95.44 686.87,-89.74 676.65,-77.75 664.84,-64.97 654.55,-54.16"/>
<polygon fill="red" stroke="red" stroke-width="0.11" points="656.82,-51.47 647.38,-46.67 651.77,-56.31 656.82,-51.47"/>
</g>
<!-- 9 -->
<g id="node9" class="node">
<title>9</title>
<polygon fill="lightgray" stroke="black" points="479.37,-125.61 458.37,-125.61 458.37,-107.61 479.37,-107.61 479.37,-125.61"/>
<text text-anchor="middle" x="468.87" y="-114.41" font-family="Times New Roman,serif" font-size="9.00">9</text>
</g>
<!-- click1 -->
<g id="node10" class="node">
<title>click1</title>
<ellipse fill="lightblue" stroke="black" cx="484.87" cy="-26.87" rx="26.74" ry="26.74"/>
<text text-anchor="middle" x="484.87" y="-24.67" font-family="Times New Roman,serif" font-size="9.00">click1</text>
</g>
<!-- 9&#45;&gt;click1 -->
<g id="edge19" class="edge">
<title>9&#45;&gt;click1</title>
<path fill="none" stroke="green" stroke-width="0.23" d="M470.35,-107.51C472.16,-97.56 475.36,-80.01 478.3,-63.91"/>
<polygon fill="green" stroke="green" stroke-width="0.23" points="481.82,-64.1 480.17,-53.63 474.93,-62.84 481.82,-64.1"/>
</g>
<!-- 9&#45;&gt;click3 -->
<g id="edge14" class="edge">
<title>9&#45;&gt;click3</title>
<path fill="none" stroke="red" stroke-width="0.17" d="M473.61,-107.51C477.22,-101.92 482.61,-94.64 488.87,-89.74 520.45,-65.01 563.46,-47.93 593.44,-38.08"/>
<polygon fill="red" stroke="red" stroke-width="0.17" points="594.61,-41.39 603.07,-35.02 592.48,-34.71 594.61,-41.39"/>
</g>
<!-- 9&#45;&gt;click9 -->
<g id="edge11" class="edge">
<title>9&#45;&gt;click9</title>
<path fill="none" stroke="red" stroke-width="0.15" stroke-dasharray="1,5" d="M463.7,-107.51C456.65,-96.46 443.61,-76.03 432.5,-58.63"/>
<polygon fill="red" stroke="red" stroke-width="0.15" points="435.24,-56.42 426.91,-49.87 429.34,-60.18 435.24,-56.42"/>
</g>
<!-- 175 -->
<g id="node19" class="node">
<title>175</title>
<ellipse fill="white" stroke="black" cx="578.87" cy="-116.61" rx="21.43" ry="21.43"/>
<text text-anchor="middle" x="578.87" y="-114.41" font-family="Times New Roman,serif" font-size="9.00">175</text>
</g>
<!-- 175&#45;&gt;click3 -->
<g id="edge15" class="edge">
<title>175&#45;&gt;click3</title>
<path fill="none" stroke="red" stroke-width="0.5" d="M588.99,-97.85C595.23,-86.89 603.43,-72.52 610.76,-59.64"/>
<polygon fill="red" stroke="red" stroke-width="0.5" points="614,-61.03 615.91,-50.61 607.92,-57.56 614,-61.03"/>
</g>
<!-- 181&#45;&gt;click9 -->
<g id="edge18" class="edge">
<title>181&#45;&gt;click9</title>
<path fill="none" stroke="green" stroke-width="0.16" d="M387.97,-96.14C391.65,-86.04 396.26,-73.41 400.5,-61.78"/>
<polygon fill="green" stroke="green" stroke-width="0.16" points="403.82,-62.9 403.96,-52.31 397.24,-60.51 403.82,-62.9"/>
</g>
</g>
</svg>
