<?xml version="1.0" encoding="utf-8" standalone="no"?>
<!DOCTYPE svg PUBLIC "-//W3C//DTD SVG 1.1//EN"
  "http://www.w3.org/Graphics/SVG/1.1/DTD/svg11.dtd">
<svg xmlns:xlink="http://www.w3.org/1999/xlink" width="460.8pt" height="345.6pt" viewBox="0 0 460.8 345.6" xmlns="http://www.w3.org/2000/svg" version="1.1">
 <metadata>
  <rdf:RDF xmlns:dc="http://purl.org/dc/elements/1.1/" xmlns:cc="http://creativecommons.org/ns#" xmlns:rdf="http://www.w3.org/1999/02/22-rdf-syntax-ns#">
   <cc:Work>
    <dc:type rdf:resource="http://purl.org/dc/dcmitype/StillImage"/>
    <dc:date>2022-10-08T21:25:32.215604</dc:date>
    <dc:format>image/svg+xml</dc:format>
    <dc:creator>
     <cc:Agent>
      <dc:title>Matplotlib v3.5.3, https://matplotlib.org/</dc:title>
     </cc:Agent>
    </dc:creator>
   </cc:Work>
  </rdf:RDF>
 </metadata>
 <defs>
  <style type="text/css">*{stroke-linejoin: round; stroke-linecap: butt}</style>
 </defs>
 <g id="figure_1">
  <g id="patch_1">
   <path d="M 0 345.6 
L 460.8 345.6 
L 460.8 0 
L 0 0 
z
" style="fill: #ffffff"/>
  </g>
  <g id="axes_1">
   <g id="patch_2">
    <path d="M 57.6 307.584 
L 414.72 307.584 
L 414.72 41.472 
L 57.6 41.472 
z
" style="fill: #ffffff"/>
   </g>
   <g id="matplotlib.axis_1">
    <g id="xtick_1">
     <g id="line2d_1">
      <path d="M 73.832727 307.584 
L 73.832727 41.472 
" clip-path="url(#p88173d3d1e)" style="fill: none; stroke: #b0b0b0; stroke-width: 0.8; stroke-linecap: square"/>
     </g>
     <g id="line2d_2">
      <defs>
       <path id="m31c728f170" d="M 0 0 
L 0 3.5 
" style="stroke: #000000; stroke-width: 0.8"/>
      </defs>
      <g>
       <use xlink:href="#m31c728f170" x="73.832727" y="307.584" style="stroke: #000000; stroke-width: 0.8"/>
      </g>
     </g>
     <g id="text_1">
      <!-- 0 -->
      <g transform="translate(70.651477 322.182437)scale(0.1 -0.1)">
       <defs>
        <path id="DejaVuSans-30" d="M 2034 4250 
Q 1547 4250 1301 3770 
Q 1056 3291 1056 2328 
Q 1056 1369 1301 889 
Q 1547 409 2034 409 
Q 2525 409 2770 889 
Q 3016 1369 3016 2328 
Q 3016 3291 2770 3770 
Q 2525 4250 2034 4250 
z
M 2034 4750 
Q 2819 4750 3233 4129 
Q 3647 3509 3647 2328 
Q 3647 1150 3233 529 
Q 2819 -91 2034 -91 
Q 1250 -91 836 529 
Q 422 1150 422 2328 
Q 422 3509 836 4129 
Q 1250 4750 2034 4750 
z
" transform="scale(0.015625)"/>
       </defs>
       <use xlink:href="#DejaVuSans-30"/>
      </g>
     </g>
    </g>
    <g id="xtick_2">
     <g id="line2d_3">
      <path d="M 128.122785 307.584 
L 128.122785 41.472 
" clip-path="url(#p88173d3d1e)" style="fill: none; stroke: #b0b0b0; stroke-width: 0.8; stroke-linecap: square"/>
     </g>
     <g id="line2d_4">
      <g>
       <use xlink:href="#m31c728f170" x="128.122785" y="307.584" style="stroke: #000000; stroke-width: 0.8"/>
      </g>
     </g>
     <g id="text_2">
      <!-- 50 -->
      <g transform="translate(121.760285 322.182437)scale(0.1 -0.1)">
       <defs>
        <path id="DejaVuSans-35" d="M 691 4666 
L 3169 4666 
L 3169 4134 
L 1269 4134 
L 1269 2991 
Q 1406 3038 1543 3061 
Q 1681 3084 1819 3084 
Q 2600 3084 3056 2656 
Q 3513 2228 3513 1497 
Q 3513 744 3044 326 
Q 2575 -91 1722 -91 
Q 1428 -91 1123 -41 
Q 819 9 494 109 
L 494 744 
Q 775 591 1075 516 
Q 1375 441 1709 441 
Q 2250 441 2565 725 
Q 2881 1009 2881 1497 
Q 2881 1984 2565 2268 
Q 2250 2553 1709 2553 
Q 1456 2553 1204 2497 
Q 953 2441 691 2322 
L 691 4666 
z
" transform="scale(0.015625)"/>
       </defs>
       <use xlink:href="#DejaVuSans-35"/>
       <use xlink:href="#DejaVuSans-30" x="63.623047"/>
      </g>
     </g>
    </g>
    <g id="xtick_3">
     <g id="line2d_5">
      <path d="M 182.412843 307.584 
L 182.412843 41.472 
" clip-path="url(#p88173d3d1e)" style="fill: none; stroke: #b0b0b0; stroke-width: 0.8; stroke-linecap: square"/>
     </g>
     <g id="line2d_6">
      <g>
       <use xlink:href="#m31c728f170" x="182.412843" y="307.584" style="stroke: #000000; stroke-width: 0.8"/>
      </g>
     </g>
     <g id="text_3">
      <!-- 100 -->
      <g transform="translate(172.869093 322.182437)scale(0.1 -0.1)">
       <defs>
        <path id="DejaVuSans-31" d="M 794 531 
L 1825 531 
L 1825 4091 
L 703 3866 
L 703 4441 
L 1819 4666 
L 2450 4666 
L 2450 531 
L 3481 531 
L 3481 0 
L 794 0 
L 794 531 
z
" transform="scale(0.015625)"/>
       </defs>
       <use xlink:href="#DejaVuSans-31"/>
       <use xlink:href="#DejaVuSans-30" x="63.623047"/>
       <use xlink:href="#DejaVuSans-30" x="127.246094"/>
      </g>
     </g>
    </g>
    <g id="xtick_4">
     <g id="line2d_7">
      <path d="M 236.702901 307.584 
L 236.702901 41.472 
" clip-path="url(#p88173d3d1e)" style="fill: none; stroke: #b0b0b0; stroke-width: 0.8; stroke-linecap: square"/>
     </g>
     <g id="line2d_8">
      <g>
       <use xlink:href="#m31c728f170" x="236.702901" y="307.584" style="stroke: #000000; stroke-width: 0.8"/>
      </g>
     </g>
     <g id="text_4">
      <!-- 150 -->
      <g transform="translate(227.159151 322.182437)scale(0.1 -0.1)">
       <use xlink:href="#DejaVuSans-31"/>
       <use xlink:href="#DejaVuSans-35" x="63.623047"/>
       <use xlink:href="#DejaVuSans-30" x="127.246094"/>
      </g>
     </g>
    </g>
    <g id="xtick_5">
     <g id="line2d_9">
      <path d="M 290.992958 307.584 
L 290.992958 41.472 
" clip-path="url(#p88173d3d1e)" style="fill: none; stroke: #b0b0b0; stroke-width: 0.8; stroke-linecap: square"/>
     </g>
     <g id="line2d_10">
      <g>
       <use xlink:href="#m31c728f170" x="290.992958" y="307.584" style="stroke: #000000; stroke-width: 0.8"/>
      </g>
     </g>
     <g id="text_5">
      <!-- 200 -->
      <g transform="translate(281.449208 322.182437)scale(0.1 -0.1)">
       <defs>
        <path id="DejaVuSans-32" d="M 1228 531 
L 3431 531 
L 3431 0 
L 469 0 
L 469 531 
Q 828 903 1448 1529 
Q 2069 2156 2228 2338 
Q 2531 2678 2651 2914 
Q 2772 3150 2772 3378 
Q 2772 3750 2511 3984 
Q 2250 4219 1831 4219 
Q 1534 4219 1204 4116 
Q 875 4013 500 3803 
L 500 4441 
Q 881 4594 1212 4672 
Q 1544 4750 1819 4750 
Q 2544 4750 2975 4387 
Q 3406 4025 3406 3419 
Q 3406 3131 3298 2873 
Q 3191 2616 2906 2266 
Q 2828 2175 2409 1742 
Q 1991 1309 1228 531 
z
" transform="scale(0.015625)"/>
       </defs>
       <use xlink:href="#DejaVuSans-32"/>
       <use xlink:href="#DejaVuSans-30" x="63.623047"/>
       <use xlink:href="#DejaVuSans-30" x="127.246094"/>
      </g>
     </g>
    </g>
    <g id="xtick_6">
     <g id="line2d_11">
      <path d="M 345.283016 307.584 
L 345.283016 41.472 
" clip-path="url(#p88173d3d1e)" style="fill: none; stroke: #b0b0b0; stroke-width: 0.8; stroke-linecap: square"/>
     </g>
     <g id="line2d_12">
      <g>
       <use xlink:href="#m31c728f170" x="345.283016" y="307.584" style="stroke: #000000; stroke-width: 0.8"/>
      </g>
     </g>
     <g id="text_6">
      <!-- 250 -->
      <g transform="translate(335.739266 322.182437)scale(0.1 -0.1)">
       <use xlink:href="#DejaVuSans-32"/>
       <use xlink:href="#DejaVuSans-35" x="63.623047"/>
       <use xlink:href="#DejaVuSans-30" x="127.246094"/>
      </g>
     </g>
    </g>
    <g id="xtick_7">
     <g id="line2d_13">
      <path d="M 399.573074 307.584 
L 399.573074 41.472 
" clip-path="url(#p88173d3d1e)" style="fill: none; stroke: #b0b0b0; stroke-width: 0.8; stroke-linecap: square"/>
     </g>
     <g id="line2d_14">
      <g>
       <use xlink:href="#m31c728f170" x="399.573074" y="307.584" style="stroke: #000000; stroke-width: 0.8"/>
      </g>
     </g>
     <g id="text_7">
      <!-- 300 -->
      <g transform="translate(390.029324 322.182437)scale(0.1 -0.1)">
       <defs>
        <path id="DejaVuSans-33" d="M 2597 2516 
Q 3050 2419 3304 2112 
Q 3559 1806 3559 1356 
Q 3559 666 3084 287 
Q 2609 -91 1734 -91 
Q 1441 -91 1130 -33 
Q 819 25 488 141 
L 488 750 
Q 750 597 1062 519 
Q 1375 441 1716 441 
Q 2309 441 2620 675 
Q 2931 909 2931 1356 
Q 2931 1769 2642 2001 
Q 2353 2234 1838 2234 
L 1294 2234 
L 1294 2753 
L 1863 2753 
Q 2328 2753 2575 2939 
Q 2822 3125 2822 3475 
Q 2822 3834 2567 4026 
Q 2313 4219 1838 4219 
Q 1578 4219 1281 4162 
Q 984 4106 628 3988 
L 628 4550 
Q 988 4650 1302 4700 
Q 1616 4750 1894 4750 
Q 2613 4750 3031 4423 
Q 3450 4097 3450 3541 
Q 3450 3153 3228 2886 
Q 3006 2619 2597 2516 
z
" transform="scale(0.015625)"/>
       </defs>
       <use xlink:href="#DejaVuSans-33"/>
       <use xlink:href="#DejaVuSans-30" x="63.623047"/>
       <use xlink:href="#DejaVuSans-30" x="127.246094"/>
      </g>
     </g>
    </g>
    <g id="text_8">
     <!-- Generations -->
     <g transform="translate(205.662344 335.860562)scale(0.1 -0.1)">
      <defs>
       <path id="DejaVuSans-47" d="M 3809 666 
L 3809 1919 
L 2778 1919 
L 2778 2438 
L 4434 2438 
L 4434 434 
Q 4069 175 3628 42 
Q 3188 -91 2688 -91 
Q 1594 -91 976 548 
Q 359 1188 359 2328 
Q 359 3472 976 4111 
Q 1594 4750 2688 4750 
Q 3144 4750 3555 4637 
Q 3966 4525 4313 4306 
L 4313 3634 
Q 3963 3931 3569 4081 
Q 3175 4231 2741 4231 
Q 1884 4231 1454 3753 
Q 1025 3275 1025 2328 
Q 1025 1384 1454 906 
Q 1884 428 2741 428 
Q 3075 428 3337 486 
Q 3600 544 3809 666 
z
" transform="scale(0.015625)"/>
       <path id="DejaVuSans-65" d="M 3597 1894 
L 3597 1613 
L 953 1613 
Q 991 1019 1311 708 
Q 1631 397 2203 397 
Q 2534 397 2845 478 
Q 3156 559 3463 722 
L 3463 178 
Q 3153 47 2828 -22 
Q 2503 -91 2169 -91 
Q 1331 -91 842 396 
Q 353 884 353 1716 
Q 353 2575 817 3079 
Q 1281 3584 2069 3584 
Q 2775 3584 3186 3129 
Q 3597 2675 3597 1894 
z
M 3022 2063 
Q 3016 2534 2758 2815 
Q 2500 3097 2075 3097 
Q 1594 3097 1305 2825 
Q 1016 2553 972 2059 
L 3022 2063 
z
" transform="scale(0.015625)"/>
       <path id="DejaVuSans-6e" d="M 3513 2113 
L 3513 0 
L 2938 0 
L 2938 2094 
Q 2938 2591 2744 2837 
Q 2550 3084 2163 3084 
Q 1697 3084 1428 2787 
Q 1159 2491 1159 1978 
L 1159 0 
L 581 0 
L 581 3500 
L 1159 3500 
L 1159 2956 
Q 1366 3272 1645 3428 
Q 1925 3584 2291 3584 
Q 2894 3584 3203 3211 
Q 3513 2838 3513 2113 
z
" transform="scale(0.015625)"/>
       <path id="DejaVuSans-72" d="M 2631 2963 
Q 2534 3019 2420 3045 
Q 2306 3072 2169 3072 
Q 1681 3072 1420 2755 
Q 1159 2438 1159 1844 
L 1159 0 
L 581 0 
L 581 3500 
L 1159 3500 
L 1159 2956 
Q 1341 3275 1631 3429 
Q 1922 3584 2338 3584 
Q 2397 3584 2469 3576 
Q 2541 3569 2628 3553 
L 2631 2963 
z
" transform="scale(0.015625)"/>
       <path id="DejaVuSans-61" d="M 2194 1759 
Q 1497 1759 1228 1600 
Q 959 1441 959 1056 
Q 959 750 1161 570 
Q 1363 391 1709 391 
Q 2188 391 2477 730 
Q 2766 1069 2766 1631 
L 2766 1759 
L 2194 1759 
z
M 3341 1997 
L 3341 0 
L 2766 0 
L 2766 531 
Q 2569 213 2275 61 
Q 1981 -91 1556 -91 
Q 1019 -91 701 211 
Q 384 513 384 1019 
Q 384 1609 779 1909 
Q 1175 2209 1959 2209 
L 2766 2209 
L 2766 2266 
Q 2766 2663 2505 2880 
Q 2244 3097 1772 3097 
Q 1472 3097 1187 3025 
Q 903 2953 641 2809 
L 641 3341 
Q 956 3463 1253 3523 
Q 1550 3584 1831 3584 
Q 2591 3584 2966 3190 
Q 3341 2797 3341 1997 
z
" transform="scale(0.015625)"/>
       <path id="DejaVuSans-74" d="M 1172 4494 
L 1172 3500 
L 2356 3500 
L 2356 3053 
L 1172 3053 
L 1172 1153 
Q 1172 725 1289 603 
Q 1406 481 1766 481 
L 2356 481 
L 2356 0 
L 1766 0 
Q 1100 0 847 248 
Q 594 497 594 1153 
L 594 3053 
L 172 3053 
L 172 3500 
L 594 3500 
L 594 4494 
L 1172 4494 
z
" transform="scale(0.015625)"/>
       <path id="DejaVuSans-69" d="M 603 3500 
L 1178 3500 
L 1178 0 
L 603 0 
L 603 3500 
z
M 603 4863 
L 1178 4863 
L 1178 4134 
L 603 4134 
L 603 4863 
z
" transform="scale(0.015625)"/>
       <path id="DejaVuSans-6f" d="M 1959 3097 
Q 1497 3097 1228 2736 
Q 959 2375 959 1747 
Q 959 1119 1226 758 
Q 1494 397 1959 397 
Q 2419 397 2687 759 
Q 2956 1122 2956 1747 
Q 2956 2369 2687 2733 
Q 2419 3097 1959 3097 
z
M 1959 3584 
Q 2709 3584 3137 3096 
Q 3566 2609 3566 1747 
Q 3566 888 3137 398 
Q 2709 -91 1959 -91 
Q 1206 -91 779 398 
Q 353 888 353 1747 
Q 353 2609 779 3096 
Q 1206 3584 1959 3584 
z
" transform="scale(0.015625)"/>
       <path id="DejaVuSans-73" d="M 2834 3397 
L 2834 2853 
Q 2591 2978 2328 3040 
Q 2066 3103 1784 3103 
Q 1356 3103 1142 2972 
Q 928 2841 928 2578 
Q 928 2378 1081 2264 
Q 1234 2150 1697 2047 
L 1894 2003 
Q 2506 1872 2764 1633 
Q 3022 1394 3022 966 
Q 3022 478 2636 193 
Q 2250 -91 1575 -91 
Q 1294 -91 989 -36 
Q 684 19 347 128 
L 347 722 
Q 666 556 975 473 
Q 1284 391 1588 391 
Q 1994 391 2212 530 
Q 2431 669 2431 922 
Q 2431 1156 2273 1281 
Q 2116 1406 1581 1522 
L 1381 1569 
Q 847 1681 609 1914 
Q 372 2147 372 2553 
Q 372 3047 722 3315 
Q 1072 3584 1716 3584 
Q 2034 3584 2315 3537 
Q 2597 3491 2834 3397 
z
" transform="scale(0.015625)"/>
      </defs>
      <use xlink:href="#DejaVuSans-47"/>
      <use xlink:href="#DejaVuSans-65" x="77.490234"/>
      <use xlink:href="#DejaVuSans-6e" x="139.013672"/>
      <use xlink:href="#DejaVuSans-65" x="202.392578"/>
      <use xlink:href="#DejaVuSans-72" x="263.916016"/>
      <use xlink:href="#DejaVuSans-61" x="305.029297"/>
      <use xlink:href="#DejaVuSans-74" x="366.308594"/>
      <use xlink:href="#DejaVuSans-69" x="405.517578"/>
      <use xlink:href="#DejaVuSans-6f" x="433.300781"/>
      <use xlink:href="#DejaVuSans-6e" x="494.482422"/>
      <use xlink:href="#DejaVuSans-73" x="557.861328"/>
     </g>
    </g>
   </g>
   <g id="matplotlib.axis_2">
    <g id="ytick_1">
     <g id="line2d_15">
      <path d="M 57.6 302.391911 
L 414.72 302.391911 
" clip-path="url(#p88173d3d1e)" style="fill: none; stroke: #b0b0b0; stroke-width: 0.8; stroke-linecap: square"/>
     </g>
     <g id="line2d_16">
      <defs>
       <path id="m258eecf53a" d="M 0 0 
L -3.5 0 
" style="stroke: #000000; stroke-width: 0.8"/>
      </defs>
      <g>
       <use xlink:href="#m258eecf53a" x="57.6" y="302.391911" style="stroke: #000000; stroke-width: 0.8"/>
      </g>
     </g>
     <g id="text_9">
      <!-- −400 -->
      <g transform="translate(23.132812 306.19113)scale(0.1 -0.1)">
       <defs>
        <path id="DejaVuSans-2212" d="M 678 2272 
L 4684 2272 
L 4684 1741 
L 678 1741 
L 678 2272 
z
" transform="scale(0.015625)"/>
        <path id="DejaVuSans-34" d="M 2419 4116 
L 825 1625 
L 2419 1625 
L 2419 4116 
z
M 2253 4666 
L 3047 4666 
L 3047 1625 
L 3713 1625 
L 3713 1100 
L 3047 1100 
L 3047 0 
L 2419 0 
L 2419 1100 
L 313 1100 
L 313 1709 
L 2253 4666 
z
" transform="scale(0.015625)"/>
       </defs>
       <use xlink:href="#DejaVuSans-2212"/>
       <use xlink:href="#DejaVuSans-34" x="83.789062"/>
       <use xlink:href="#DejaVuSans-30" x="147.412109"/>
       <use xlink:href="#DejaVuSans-30" x="211.035156"/>
      </g>
     </g>
    </g>
    <g id="ytick_2">
     <g id="line2d_17">
      <path d="M 57.6 257.274248 
L 414.72 257.274248 
" clip-path="url(#p88173d3d1e)" style="fill: none; stroke: #b0b0b0; stroke-width: 0.8; stroke-linecap: square"/>
     </g>
     <g id="line2d_18">
      <g>
       <use xlink:href="#m258eecf53a" x="57.6" y="257.274248" style="stroke: #000000; stroke-width: 0.8"/>
      </g>
     </g>
     <g id="text_10">
      <!-- −200 -->
      <g transform="translate(23.132812 261.073467)scale(0.1 -0.1)">
       <use xlink:href="#DejaVuSans-2212"/>
       <use xlink:href="#DejaVuSans-32" x="83.789062"/>
       <use xlink:href="#DejaVuSans-30" x="147.412109"/>
       <use xlink:href="#DejaVuSans-30" x="211.035156"/>
      </g>
     </g>
    </g>
    <g id="ytick_3">
     <g id="line2d_19">
      <path d="M 57.6 212.156585 
L 414.72 212.156585 
" clip-path="url(#p88173d3d1e)" style="fill: none; stroke: #b0b0b0; stroke-width: 0.8; stroke-linecap: square"/>
     </g>
     <g id="line2d_20">
      <g>
       <use xlink:href="#m258eecf53a" x="57.6" y="212.156585" style="stroke: #000000; stroke-width: 0.8"/>
      </g>
     </g>
     <g id="text_11">
      <!-- 0 -->
      <g transform="translate(44.2375 215.955804)scale(0.1 -0.1)">
       <use xlink:href="#DejaVuSans-30"/>
      </g>
     </g>
    </g>
    <g id="ytick_4">
     <g id="line2d_21">
      <path d="M 57.6 167.038922 
L 414.72 167.038922 
" clip-path="url(#p88173d3d1e)" style="fill: none; stroke: #b0b0b0; stroke-width: 0.8; stroke-linecap: square"/>
     </g>
     <g id="line2d_22">
      <g>
       <use xlink:href="#m258eecf53a" x="57.6" y="167.038922" style="stroke: #000000; stroke-width: 0.8"/>
      </g>
     </g>
     <g id="text_12">
      <!-- 200 -->
      <g transform="translate(31.5125 170.838141)scale(0.1 -0.1)">
       <use xlink:href="#DejaVuSans-32"/>
       <use xlink:href="#DejaVuSans-30" x="63.623047"/>
       <use xlink:href="#DejaVuSans-30" x="127.246094"/>
      </g>
     </g>
    </g>
    <g id="ytick_5">
     <g id="line2d_23">
      <path d="M 57.6 121.921259 
L 414.72 121.921259 
" clip-path="url(#p88173d3d1e)" style="fill: none; stroke: #b0b0b0; stroke-width: 0.8; stroke-linecap: square"/>
     </g>
     <g id="line2d_24">
      <g>
       <use xlink:href="#m258eecf53a" x="57.6" y="121.921259" style="stroke: #000000; stroke-width: 0.8"/>
      </g>
     </g>
     <g id="text_13">
      <!-- 400 -->
      <g transform="translate(31.5125 125.720478)scale(0.1 -0.1)">
       <use xlink:href="#DejaVuSans-34"/>
       <use xlink:href="#DejaVuSans-30" x="63.623047"/>
       <use xlink:href="#DejaVuSans-30" x="127.246094"/>
      </g>
     </g>
    </g>
    <g id="ytick_6">
     <g id="line2d_25">
      <path d="M 57.6 76.803596 
L 414.72 76.803596 
" clip-path="url(#p88173d3d1e)" style="fill: none; stroke: #b0b0b0; stroke-width: 0.8; stroke-linecap: square"/>
     </g>
     <g id="line2d_26">
      <g>
       <use xlink:href="#m258eecf53a" x="57.6" y="76.803596" style="stroke: #000000; stroke-width: 0.8"/>
      </g>
     </g>
     <g id="text_14">
      <!-- 600 -->
      <g transform="translate(31.5125 80.602815)scale(0.1 -0.1)">
       <defs>
        <path id="DejaVuSans-36" d="M 2113 2584 
Q 1688 2584 1439 2293 
Q 1191 2003 1191 1497 
Q 1191 994 1439 701 
Q 1688 409 2113 409 
Q 2538 409 2786 701 
Q 3034 994 3034 1497 
Q 3034 2003 2786 2293 
Q 2538 2584 2113 2584 
z
M 3366 4563 
L 3366 3988 
Q 3128 4100 2886 4159 
Q 2644 4219 2406 4219 
Q 1781 4219 1451 3797 
Q 1122 3375 1075 2522 
Q 1259 2794 1537 2939 
Q 1816 3084 2150 3084 
Q 2853 3084 3261 2657 
Q 3669 2231 3669 1497 
Q 3669 778 3244 343 
Q 2819 -91 2113 -91 
Q 1303 -91 875 529 
Q 447 1150 447 2328 
Q 447 3434 972 4092 
Q 1497 4750 2381 4750 
Q 2619 4750 2861 4703 
Q 3103 4656 3366 4563 
z
" transform="scale(0.015625)"/>
       </defs>
       <use xlink:href="#DejaVuSans-36"/>
       <use xlink:href="#DejaVuSans-30" x="63.623047"/>
       <use xlink:href="#DejaVuSans-30" x="127.246094"/>
      </g>
     </g>
    </g>
    <g id="text_15">
     <!-- Fitness -->
     <g transform="translate(17.053125 191.845187)rotate(-90)scale(0.1 -0.1)">
      <defs>
       <path id="DejaVuSans-46" d="M 628 4666 
L 3309 4666 
L 3309 4134 
L 1259 4134 
L 1259 2759 
L 3109 2759 
L 3109 2228 
L 1259 2228 
L 1259 0 
L 628 0 
L 628 4666 
z
" transform="scale(0.015625)"/>
      </defs>
      <use xlink:href="#DejaVuSans-46"/>
      <use xlink:href="#DejaVuSans-69" x="50.269531"/>
      <use xlink:href="#DejaVuSans-74" x="78.052734"/>
      <use xlink:href="#DejaVuSans-6e" x="117.261719"/>
      <use xlink:href="#DejaVuSans-65" x="180.640625"/>
      <use xlink:href="#DejaVuSans-73" x="242.164062"/>
      <use xlink:href="#DejaVuSans-73" x="294.263672"/>
     </g>
    </g>
   </g>
   <g id="line2d_27">
    <path d="M 73.832727 191.447578 
L 74.918528 187.74793 
L 76.00433 191.492696 
L 77.090131 192.349931 
L 78.175932 201.373464 
L 79.261733 184.183634 
L 80.347534 200.877169 
L 81.433335 183.145928 
L 82.519137 179.942574 
L 83.604938 180.123044 
L 84.690739 184.950634 
L 85.77654 191.22199 
L 86.862341 206.65223 
L 87.948142 188.063753 
L 89.033943 210.893291 
L 90.119745 194.650932 
L 91.205546 189.417283 
L 92.291347 190.725695 
L 93.377148 184.273869 
L 94.462949 191.447578 
L 95.54875 191.853637 
L 98.806154 207.509466 
L 99.891955 191.041519 
L 100.977756 211.795644 
L 102.063557 215.224586 
L 103.149358 194.921638 
L 104.23516 196.81658 
L 105.320961 192.981578 
L 106.406762 191.673166 
L 107.492563 198.756639 
L 108.578364 153.142682 
L 109.664165 181.025398 
L 110.749967 199.298051 
L 111.835768 205.253583 
L 112.921569 171.14463 
L 114.00737 162.436921 
L 115.093171 176.242925 
L 116.178972 219.420529 
L 117.264773 179.942574 
L 118.350575 178.769515 
L 119.436376 139.111089 
L 120.522177 203.087935 
L 121.607978 213.058938 
L 122.693779 205.388936 
L 123.77958 175.521043 
L 124.865382 184.409222 
L 125.951183 206.155936 
L 127.036984 222.578765 
L 128.122785 192.665755 
L 129.208586 184.725046 
L 130.294387 181.205868 
L 131.380189 185.898105 
L 132.46599 156.616742 
L 133.551791 190.003813 
L 134.637592 176.468514 
L 135.723393 215.044116 
L 136.809194 224.112766 
L 137.894995 192.034108 
L 138.980797 172.001865 
L 140.066598 188.153988 
L 141.152399 161.760156 
L 142.2382 170.106923 
L 143.324001 184.499458 
L 144.409802 206.065701 
L 145.495604 199.478522 
L 146.581405 216.532998 
L 147.667206 202.185582 
L 148.753007 181.972869 
L 149.838808 179.762103 
L 150.924609 215.089233 
L 152.01041 211.615173 
L 153.096212 177.325749 
L 154.182013 204.802406 
L 155.267814 178.814632 
L 156.353615 168.978982 
L 157.439416 217.886528 
L 158.525217 164.737921 
L 159.611019 210.442114 
L 160.69682 167.08404 
L 161.782621 167.174275 
L 162.868422 168.753393 
L 163.954223 181.74728 
L 165.040024 173.355395 
L 166.125825 217.480469 
L 167.211627 219.736353 
L 168.297428 206.020583 
L 169.383229 221.856883 
L 170.46903 211.795644 
L 171.554831 180.39375 
L 172.640632 167.354746 
L 173.726434 213.690586 
L 174.812235 192.665755 
L 175.898036 210.306761 
L 176.983837 178.228103 
L 178.069638 182.92034 
L 179.155439 183.055693 
L 180.24124 189.642871 
L 181.327042 204.847524 
L 182.412843 173.039571 
L 183.498644 193.883932 
L 184.584445 190.815931 
L 185.670246 194.199755 
L 186.756047 184.003164 
L 187.841849 182.33381 
L 188.92765 200.380875 
L 190.013451 196.681227 
L 191.099252 186.213929 
L 192.185053 197.764051 
L 193.270854 181.476574 
L 194.356656 185.627399 
L 195.442457 188.830753 
L 196.528258 186.665106 
L 197.614059 187.567459 
L 198.69986 193.613226 
L 199.785661 179.716986 
L 200.871462 178.769515 
L 201.957264 178.408573 
L 203.043065 162.482038 
L 204.128866 170.693453 
L 205.214667 204.847524 
L 206.300468 175.160102 
L 207.386269 151.428211 
L 208.472071 184.273869 
L 209.557872 196.184933 
L 210.643673 205.659642 
L 211.729474 222.623883 
L 212.815275 217.07441 
L 213.901076 218.563293 
L 214.986877 200.065052 
L 216.072679 155.89486 
L 217.15848 143.848444 
L 218.244281 207.23876 
L 219.330082 211.209114 
L 220.415883 207.283878 
L 221.501684 220.413117 
L 222.587486 181.74728 
L 223.673287 213.058938 
L 224.759088 183.055693 
L 225.844889 189.191695 
L 226.93069 183.461752 
L 228.016491 199.613875 
L 229.102292 185.131105 
L 230.188094 182.92034 
L 231.273895 146.23968 
L 232.359696 162.572274 
L 233.445497 170.964159 
L 234.531298 158.060507 
L 235.617099 173.355395 
L 236.702901 186.890694 
L 237.788702 188.51493 
L 238.874503 180.935162 
L 239.960304 178.137867 
L 241.046105 166.362157 
L 242.131906 213.690586 
L 243.217708 190.545225 
L 244.303509 155.037624 
L 245.38931 202.9977 
L 246.475111 174.302866 
L 247.560912 208.141113 
L 248.646713 234.534946 
L 249.732514 192.259696 
L 250.818316 196.771462 
L 251.904117 183.68734 
L 252.989918 199.613875 
L 254.075719 213.194291 
L 255.16152 198.93711 
L 256.247321 193.34252 
L 257.333123 221.495941 
L 258.418924 178.589044 
L 259.504725 195.778874 
L 260.590526 184.183634 
L 262.762128 212.472409 
L 263.847929 229.932944 
L 264.933731 169.655747 
L 266.019532 190.906166 
L 267.105333 154.766918 
L 268.191134 178.679279 
L 269.276935 195.553285 
L 270.362736 145.788503 
L 271.448538 214.141762 
L 272.534339 223.165295 
L 273.62014 167.760805 
L 274.705941 193.162049 
L 275.791742 179.536515 
L 276.877543 208.953231 
L 277.963344 207.870407 
L 279.049146 215.089233 
L 280.134947 189.191695 
L 281.220748 155.037624 
L 282.306549 163.564862 
L 283.39235 181.837516 
L 284.478151 151.879388 
L 285.563953 173.174924 
L 286.649754 185.582282 
L 287.735555 215.359939 
L 288.821356 212.156585 
L 289.907157 191.98899 
L 290.992958 216.442763 
L 292.07876 207.23876 
L 293.164561 186.665106 
L 294.250362 145.743385 
L 295.336163 204.080524 
L 296.421964 177.822044 
L 297.507765 211.028644 
L 298.593566 170.197159 
L 299.679368 200.245522 
L 300.765169 198.756639 
L 301.85097 186.304164 
L 302.936771 189.191695 
L 304.022572 181.927751 
L 305.108373 197.087286 
L 306.194175 209.223937 
L 307.279976 218.337705 
L 309.451578 174.573572 
L 310.537379 161.760156 
L 311.62318 154.270624 
L 312.708981 177.235514 
L 313.794783 180.21328 
L 314.880584 206.697348 
L 315.966385 218.969352 
L 317.052186 179.62675 
L 318.137987 171.14463 
L 319.223788 165.910981 
L 320.30959 192.349931 
L 321.395391 164.151392 
L 322.481192 153.638976 
L 323.566993 189.733107 
L 324.652794 210.983526 
L 325.738595 202.005111 
L 326.824396 224.924884 
L 327.910198 185.672517 
L 328.995999 210.036055 
L 330.0818 195.192344 
L 331.167601 198.711522 
L 332.253402 180.664456 
L 333.339203 182.784987 
L 334.425005 166.993805 
L 335.510806 187.477224 
L 336.596607 148.450445 
L 337.682408 195.056991 
L 338.768209 193.613226 
L 339.85401 220.909412 
L 340.939811 256.28166 
L 342.025613 241.077007 
L 343.111414 186.890694 
L 344.197215 235.256829 
L 345.283016 226.774708 
L 346.368817 214.231998 
L 347.454618 145.743385 
L 348.54042 185.943223 
L 349.626221 197.673815 
L 350.712022 221.044765 
L 351.797823 214.322233 
L 352.883624 196.726344 
L 353.969425 188.830753 
L 355.055227 159.36892 
L 356.141028 171.731159 
L 357.226829 204.351229 
L 358.31263 176.91969 
L 359.398431 204.576818 
L 360.484232 184.770164 
L 361.570033 179.220691 
L 362.655835 181.882633 
L 363.741636 176.558749 
L 364.827437 195.823991 
L 365.913238 158.78239 
L 366.999039 193.162049 
L 368.08484 190.229401 
L 369.170642 196.726344 
L 370.256443 210.983526 
L 371.342244 208.050878 
L 372.428045 239.497889 
L 373.513846 236.835947 
L 374.599647 215.269704 
L 376.77125 199.298051 
L 377.857051 206.246171 
L 378.942852 187.612577 
L 380.028653 201.05764 
L 381.114454 219.736353 
L 382.200255 210.442114 
L 383.286057 183.912928 
L 384.371858 192.665755 
L 385.457659 179.852339 
L 386.54346 173.44563 
L 387.629261 218.924235 
L 388.715062 221.902 
L 389.800863 232.369298 
L 390.886665 215.495292 
L 391.972466 247.438598 
L 394.144068 265.214957 
L 395.229869 258.537543 
L 396.31567 267.922017 
L 397.401472 253.303894 
L 398.487273 233.722828 
L 398.487273 233.722828 
" clip-path="url(#p88173d3d1e)" style="fill: none; stroke: #0000ff; stroke-width: 1.5; stroke-linecap: square"/>
   </g>
   <g id="line2d_28">
    <path d="M 73.832727 195.486554 
L 74.918528 193.058415 
L 76.00433 194.279784 
L 78.175932 208.636427 
L 79.261733 197.684299 
L 80.347534 209.931105 
L 81.433335 199.659609 
L 82.519137 190.592063 
L 83.604938 194.737964 
L 84.690739 196.060578 
L 85.77654 198.533835 
L 86.862341 226.320427 
L 87.948142 206.726002 
L 89.033943 222.439005 
L 91.205546 201.634426 
L 92.291347 205.570023 
L 93.377148 213.057595 
L 94.462949 219.63164 
L 95.54875 198.977372 
L 96.634552 217.744244 
L 97.720353 215.850119 
L 98.806154 215.210722 
L 99.891955 213.942722 
L 100.977756 224.315775 
L 102.063557 232.700679 
L 103.149358 217.060853 
L 104.23516 205.531416 
L 105.320961 205.705239 
L 106.406762 210.862446 
L 107.492563 236.284284 
L 108.578364 176.794237 
L 109.664165 239.097281 
L 110.749967 213.818651 
L 111.835768 249.846316 
L 112.921569 221.571848 
L 114.00737 185.01271 
L 115.093171 202.650213 
L 116.178972 229.757693 
L 117.264773 202.700131 
L 118.350575 202.575656 
L 119.436376 154.422803 
L 120.522177 242.856896 
L 121.607978 239.562253 
L 122.693779 219.149453 
L 123.77958 211.570197 
L 124.865382 221.930195 
L 125.951183 234.309358 
L 127.036984 252.587404 
L 128.122785 217.540935 
L 129.208586 215.325533 
L 130.294387 214.113753 
L 131.380189 224.166183 
L 132.46599 175.551868 
L 133.551791 227.260841 
L 134.637592 209.040029 
L 135.723393 255.310562 
L 136.809194 238.093419 
L 137.894995 230.158773 
L 138.980797 185.833207 
L 140.066598 205.108027 
L 141.152399 213.846851 
L 142.2382 192.392765 
L 143.324001 201.808183 
L 144.409802 241.105601 
L 145.495604 233.926205 
L 146.581405 252.975281 
L 147.667206 261.483031 
L 148.753007 232.323332 
L 149.838808 236.742086 
L 150.924609 234.321216 
L 152.01041 233.245599 
L 153.096212 199.214373 
L 154.182013 225.602872 
L 155.267814 215.544234 
L 156.353615 220.429856 
L 157.439416 273.098382 
L 158.525217 198.328741 
L 159.611019 235.36022 
L 160.69682 186.245188 
L 161.782621 212.873501 
L 162.868422 182.05247 
L 163.954223 241.244872 
L 165.040024 192.456745 
L 166.125825 236.870884 
L 167.211627 234.743385 
L 168.297428 228.800044 
L 169.383229 252.580984 
L 170.46903 246.337804 
L 171.554831 196.060952 
L 172.640632 205.873341 
L 173.726434 241.44708 
L 174.812235 224.755992 
L 175.898036 225.386728 
L 176.983837 207.635891 
L 178.069638 218.72586 
L 179.155439 214.331379 
L 180.24124 217.345778 
L 181.327042 243.184955 
L 182.412843 232.648969 
L 183.498644 241.553257 
L 184.584445 219.0776 
L 185.670246 240.59809 
L 186.756047 246.213926 
L 187.841849 218.276308 
L 188.92765 260.573215 
L 190.013451 251.719709 
L 191.099252 235.842948 
L 192.185053 242.608239 
L 193.270854 220.64224 
L 194.356656 218.979882 
L 195.442457 213.555315 
L 196.528258 209.940748 
L 197.614059 228.174358 
L 198.69986 235.59312 
L 199.785661 230.461301 
L 200.871462 198.368972 
L 201.957264 198.829288 
L 203.043065 181.415014 
L 204.128866 192.3026 
L 205.214667 249.038334 
L 206.300468 201.042072 
L 207.386269 174.996911 
L 208.472071 228.580379 
L 209.557872 241.014593 
L 210.643673 233.475477 
L 211.729474 242.908575 
L 212.815275 247.564872 
L 213.901076 243.73903 
L 214.986877 236.442201 
L 216.072679 183.450119 
L 217.15848 175.577871 
L 218.244281 234.741075 
L 219.330082 246.539845 
L 220.415883 232.14678 
L 221.501684 233.227328 
L 222.587486 205.181292 
L 223.673287 249.190272 
L 224.759088 232.24781 
L 225.844889 233.414232 
L 226.93069 229.138433 
L 228.016491 223.221064 
L 229.102292 220.911545 
L 230.188094 203.230606 
L 231.273895 192.19538 
L 232.359696 201.540303 
L 233.445497 199.198805 
L 234.531298 188.313372 
L 235.617099 228.178276 
L 236.702901 206.097787 
L 237.788702 228.091222 
L 238.874503 213.542656 
L 239.960304 214.395573 
L 241.046105 191.991611 
L 242.131906 227.364587 
L 243.217708 230.370962 
L 244.303509 200.040406 
L 245.38931 227.443647 
L 246.475111 200.750977 
L 248.646713 247.595243 
L 249.732514 234.244924 
L 250.818316 212.55839 
L 251.904117 226.051216 
L 252.989918 254.453944 
L 254.075719 254.882035 
L 255.16152 245.868719 
L 256.247321 216.600927 
L 257.333123 247.536534 
L 258.418924 216.143746 
L 259.504725 228.909066 
L 260.590526 231.806818 
L 261.676327 245.837737 
L 262.762128 233.069301 
L 263.847929 245.006161 
L 264.933731 213.626746 
L 266.019532 233.967282 
L 267.105333 189.126795 
L 269.276935 227.044832 
L 270.362736 180.61817 
L 271.448538 247.39149 
L 272.534339 265.992962 
L 273.62014 196.923153 
L 274.705941 214.490538 
L 275.791742 204.623153 
L 276.877543 237.850874 
L 277.963344 229.58274 
L 279.049146 261.195865 
L 280.134947 243.292533 
L 281.220748 188.899745 
L 282.306549 204.714199 
L 283.39235 207.175251 
L 284.478151 201.628317 
L 285.563953 218.99466 
L 286.649754 201.891802 
L 287.735555 231.088736 
L 288.821356 246.705935 
L 289.907157 227.691176 
L 290.992958 241.195877 
L 292.07876 240.462765 
L 293.164561 225.383054 
L 294.250362 205.968385 
L 295.336163 235.31205 
L 296.421964 197.003896 
L 297.507765 227.332297 
L 298.593566 215.075061 
L 299.679368 243.895643 
L 300.765169 231.927665 
L 301.85097 217.319924 
L 302.936771 230.756401 
L 304.022572 206.786314 
L 305.108373 241.713513 
L 306.194175 259.771025 
L 308.365777 240.525424 
L 309.451578 218.01572 
L 310.537379 189.270315 
L 311.62318 192.390537 
L 312.708981 191.324511 
L 313.794783 202.093067 
L 314.880584 232.087972 
L 315.966385 251.819039 
L 317.052186 222.288692 
L 319.223788 199.128123 
L 320.30959 226.86285 
L 321.395391 198.523057 
L 322.481192 194.414113 
L 323.566993 255.395599 
L 324.652794 256.400992 
L 325.738595 216.080086 
L 326.824396 245.196024 
L 327.910198 226.892286 
L 328.995999 235.334394 
L 330.0818 230.368037 
L 331.167601 243.647355 
L 332.253402 237.294331 
L 333.339203 209.315323 
L 334.425005 188.066893 
L 335.510806 231.330478 
L 336.596607 184.158047 
L 337.682408 228.236546 
L 338.768209 211.670101 
L 339.85401 268.890386 
L 340.939811 295.488 
L 342.025613 270.996992 
L 343.111414 216.510019 
L 344.197215 264.663578 
L 345.283016 265.20304 
L 346.368817 260.527073 
L 347.454618 174.905804 
L 348.54042 222.098605 
L 350.712022 248.412486 
L 351.797823 249.348653 
L 352.883624 227.17679 
L 353.969425 224.357182 
L 355.055227 198.283787 
L 356.141028 189.863409 
L 357.226829 219.419853 
L 358.31263 208.459293 
L 359.398431 237.763796 
L 360.484232 216.085722 
L 361.570033 199.049891 
L 362.655835 222.727552 
L 363.741636 191.253815 
L 364.827437 230.867551 
L 365.913238 188.890309 
L 366.999039 220.970931 
L 368.08484 207.545064 
L 369.170642 220.377039 
L 370.256443 225.465804 
L 371.342244 248.519787 
L 372.428045 256.729883 
L 373.513846 254.908711 
L 374.599647 238.431549 
L 375.685448 224.058839 
L 376.77125 232.908439 
L 377.857051 227.131995 
L 378.942852 214.276466 
L 380.028653 220.963377 
L 381.114454 273.039124 
L 382.200255 277.766617 
L 383.286057 237.986104 
L 384.371858 244.909125 
L 385.457659 212.742589 
L 386.54346 205.267371 
L 387.629261 252.732992 
L 388.715062 269.998022 
L 389.800863 268.632674 
L 390.886665 238.20091 
L 391.972466 274.641817 
L 393.058267 269.841324 
L 394.144068 276.004023 
L 395.229869 268.382709 
L 396.31567 282.960756 
L 397.401472 273.774389 
L 398.487273 248.863552 
L 398.487273 248.863552 
" clip-path="url(#p88173d3d1e)" style="fill: none; stroke-dasharray: 9.6,2.4,1.5,2.4; stroke-dashoffset: 0; stroke: #008000; stroke-width: 1.5"/>
   </g>
   <g id="line2d_29">
    <path d="M 73.832727 187.408602 
L 74.918528 182.437445 
L 76.00433 188.705607 
L 77.090131 183.124059 
L 78.175932 194.110501 
L 79.261733 170.68297 
L 80.347534 191.823234 
L 81.433335 166.632247 
L 82.519137 169.293085 
L 83.604938 165.508125 
L 84.690739 173.84069 
L 85.77654 183.910144 
L 86.862341 186.984034 
L 87.948142 169.401504 
L 89.033943 199.347576 
L 90.119745 177.014253 
L 91.205546 177.20014 
L 92.291347 175.881367 
L 93.377148 155.490144 
L 94.462949 163.263516 
L 95.54875 184.729902 
L 96.634552 176.340092 
L 98.806154 199.80821 
L 99.891955 168.140316 
L 100.977756 199.275513 
L 102.063557 197.748494 
L 103.149358 172.782423 
L 104.23516 188.101744 
L 106.406762 172.483886 
L 107.492563 161.228994 
L 108.578364 129.491127 
L 109.664165 122.953515 
L 110.749967 184.777452 
L 111.835768 160.66085 
L 112.921569 120.717411 
L 114.00737 139.861131 
L 115.093171 149.835638 
L 116.178972 209.083364 
L 117.264773 157.185017 
L 118.350575 154.963373 
L 119.436376 123.799374 
L 120.522177 163.318974 
L 121.607978 186.555624 
L 122.693779 191.628418 
L 123.77958 139.471889 
L 124.865382 146.88825 
L 125.951183 178.002514 
L 127.036984 192.570126 
L 128.122785 167.790574 
L 129.208586 154.124559 
L 130.294387 148.297984 
L 131.380189 147.630028 
L 132.46599 137.681616 
L 133.551791 152.746784 
L 134.637592 143.896998 
L 135.723393 174.777669 
L 136.809194 210.132113 
L 137.894995 153.909442 
L 138.980797 158.170523 
L 140.066598 171.19995 
L 141.152399 109.67346 
L 142.2382 147.821081 
L 143.324001 167.190732 
L 144.409802 171.0258 
L 145.495604 165.030839 
L 146.581405 180.090716 
L 147.667206 142.888132 
L 148.753007 131.622406 
L 149.838808 122.782121 
L 150.924609 195.857251 
L 152.01041 189.984747 
L 153.096212 155.437126 
L 154.182013 184.00194 
L 155.267814 142.08503 
L 156.353615 117.528108 
L 157.439416 162.674674 
L 158.525217 131.147102 
L 159.611019 185.524008 
L 160.69682 147.922892 
L 161.782621 121.475049 
L 162.868422 155.454317 
L 163.954223 122.249689 
L 165.040024 154.254045 
L 166.125825 198.090055 
L 167.211627 204.72932 
L 168.297428 183.241122 
L 169.383229 191.132781 
L 171.554831 164.726549 
L 172.640632 128.836151 
L 173.726434 185.934091 
L 174.812235 160.575518 
L 175.898036 195.226794 
L 176.983837 148.820314 
L 178.069638 147.114819 
L 179.155439 151.780006 
L 180.24124 161.939965 
L 181.327042 166.510092 
L 182.412843 113.430174 
L 183.498644 146.214607 
L 184.584445 162.554261 
L 185.670246 147.801421 
L 186.756047 121.792401 
L 187.841849 146.391312 
L 188.92765 140.188535 
L 190.013451 141.642745 
L 191.099252 136.58491 
L 192.185053 152.919863 
L 193.270854 142.310909 
L 194.356656 152.274917 
L 195.442457 164.106192 
L 196.528258 163.389463 
L 197.614059 146.96056 
L 198.69986 151.633331 
L 199.785661 128.97267 
L 200.871462 159.170057 
L 201.957264 157.987859 
L 203.043065 143.549063 
L 204.128866 149.084306 
L 205.214667 160.656713 
L 206.300468 149.278131 
L 207.386269 127.859511 
L 209.557872 151.355272 
L 211.729474 202.33919 
L 212.815275 186.583949 
L 213.901076 193.387557 
L 214.986877 163.687902 
L 216.072679 128.3396 
L 217.15848 112.119016 
L 218.244281 179.736445 
L 219.330082 175.878383 
L 220.415883 182.420975 
L 221.501684 207.598907 
L 222.587486 158.313269 
L 223.673287 176.927605 
L 224.759088 133.863576 
L 225.844889 144.969158 
L 226.93069 137.78507 
L 228.016491 176.006686 
L 229.102292 149.350665 
L 230.188094 162.610074 
L 231.273895 100.283979 
L 232.359696 123.604245 
L 233.445497 142.729512 
L 234.531298 127.807642 
L 235.617099 118.532515 
L 236.702901 167.683601 
L 237.788702 148.938638 
L 238.874503 148.327669 
L 239.960304 141.880161 
L 241.046105 140.732704 
L 242.131906 200.016584 
L 243.217708 150.719488 
L 244.303509 110.034841 
L 245.38931 178.551752 
L 246.475111 147.854755 
L 247.560912 191.157204 
L 248.646713 221.474649 
L 249.732514 150.274468 
L 250.818316 180.984535 
L 251.904117 141.323464 
L 252.989918 144.773806 
L 254.075719 171.506547 
L 255.16152 152.005501 
L 256.247321 170.084113 
L 257.333123 195.455349 
L 258.418924 141.034342 
L 259.504725 162.648681 
L 260.590526 136.56045 
L 261.676327 151.765776 
L 262.762128 191.875516 
L 263.847929 214.859728 
L 264.933731 125.684747 
L 266.019532 147.84505 
L 267.105333 120.40704 
L 268.191134 148.447886 
L 269.276935 164.061738 
L 270.362736 110.958836 
L 271.448538 180.892034 
L 272.534339 180.337628 
L 273.62014 138.598456 
L 274.705941 171.83356 
L 275.791742 154.449877 
L 276.877543 180.055588 
L 277.963344 186.158074 
L 279.049146 168.982602 
L 280.134947 135.090857 
L 281.220748 121.175503 
L 282.306549 122.415525 
L 283.39235 156.49978 
L 284.478151 102.130458 
L 285.563953 127.355189 
L 286.649754 169.272761 
L 287.735555 199.631143 
L 289.907157 156.286804 
L 290.992958 191.689649 
L 292.07876 174.014755 
L 293.164561 147.947158 
L 294.250362 85.518386 
L 295.336163 172.848997 
L 296.421964 158.640191 
L 297.507765 194.72499 
L 298.593566 125.319256 
L 299.679368 156.595402 
L 300.765169 165.585613 
L 301.85097 155.288404 
L 302.936771 147.626988 
L 304.022572 157.069188 
L 305.108373 152.461059 
L 306.194175 158.676849 
L 307.279976 186.280153 
L 308.365777 152.476088 
L 309.451578 131.131424 
L 310.537379 134.249996 
L 311.62318 116.150711 
L 312.708981 163.146517 
L 313.794783 158.333493 
L 314.880584 181.306724 
L 315.966385 186.119666 
L 317.052186 136.964809 
L 318.137987 131.975222 
L 319.223788 132.693839 
L 320.30959 157.837013 
L 321.395391 129.779727 
L 322.481192 112.86384 
L 323.566993 124.070614 
L 324.652794 165.56606 
L 325.738595 187.930136 
L 326.824396 204.653743 
L 327.910198 144.452748 
L 328.995999 184.737716 
L 330.0818 160.016651 
L 331.167601 153.775688 
L 332.253402 124.034582 
L 333.339203 156.25465 
L 334.425005 145.920716 
L 335.510806 143.623969 
L 336.596607 112.742843 
L 337.682408 161.877436 
L 338.768209 175.55635 
L 339.85401 172.928437 
L 340.939811 217.075319 
L 342.025613 211.157022 
L 343.111414 157.271369 
L 344.197215 205.850079 
L 345.283016 188.346376 
L 346.368817 167.936922 
L 347.454618 116.580967 
L 348.54042 149.787841 
L 349.626221 160.53636 
L 350.712022 193.677043 
L 352.883624 166.275899 
L 353.969425 153.304325 
L 355.055227 120.454053 
L 357.226829 189.282606 
L 358.31263 145.380088 
L 359.398431 171.38984 
L 360.484232 153.454605 
L 361.570033 159.391491 
L 362.655835 141.037715 
L 363.741636 161.863683 
L 364.827437 160.780431 
L 365.913238 128.674471 
L 366.999039 165.353167 
L 368.08484 172.913738 
L 369.170642 173.07565 
L 370.256443 196.501248 
L 371.342244 167.581969 
L 372.428045 222.265895 
L 373.513846 218.763183 
L 374.599647 192.107858 
L 375.685448 190.328445 
L 376.77125 165.687663 
L 377.857051 185.360348 
L 378.942852 160.948687 
L 380.028653 181.151903 
L 381.114454 166.433581 
L 382.200255 143.117611 
L 383.286057 129.839753 
L 384.371858 140.422384 
L 385.457659 146.962088 
L 386.54346 141.62389 
L 387.629261 185.115477 
L 388.715062 173.805979 
L 389.800863 196.105922 
L 390.886665 192.789674 
L 391.972466 220.235378 
L 393.058267 243.082936 
L 394.144068 254.425891 
L 395.229869 248.692377 
L 396.31567 252.883277 
L 397.401472 232.833398 
L 398.487273 218.582104 
L 398.487273 218.582104 
" clip-path="url(#p88173d3d1e)" style="fill: none; stroke-dasharray: 9.6,2.4,1.5,2.4; stroke-dashoffset: 0; stroke: #008000; stroke-width: 1.5"/>
   </g>
   <g id="line2d_30">
    <path d="M 73.832727 184.409222 
L 74.918528 179.897456 
L 76.00433 187.567459 
L 77.090131 179.220691 
L 78.175932 190.725695 
L 79.261733 160.045684 
L 80.347534 182.830104 
L 81.433335 157.564213 
L 82.519137 168.392452 
L 83.604938 158.692155 
L 84.690739 175.160102 
L 85.77654 181.025398 
L 86.862341 176.288043 
L 87.948142 161.399214 
L 89.033943 199.974816 
L 90.119745 169.97157 
L 91.205546 172.67863 
L 92.291347 170.873924 
L 93.377148 153.278035 
L 94.462949 153.278035 
L 95.54875 180.574221 
L 96.634552 163.880686 
L 97.720353 177.415985 
L 98.806154 192.75599 
L 99.891955 149.89421 
L 100.977756 193.883932 
L 102.063557 183.958046 
L 103.149358 172.453042 
L 104.23516 182.378928 
L 105.320961 174.934513 
L 106.406762 163.203921 
L 107.492563 147.187151 
L 108.578364 116.50714 
L 109.664165 105.678901 
L 110.749967 179.671868 
L 111.835768 136.810088 
L 112.921569 111.544197 
L 114.00737 139.742736 
L 115.093171 144.705679 
L 116.178972 207.644819 
L 117.264773 148.54068 
L 118.350575 154.631565 
L 119.436376 121.018906 
L 120.522177 151.473329 
L 121.607978 168.392452 
L 122.693779 180.799809 
L 123.77958 139.29156 
L 124.865382 150.570975 
L 125.951183 165.685392 
L 127.036984 169.97157 
L 128.122785 158.692155 
L 129.208586 126.884202 
L 130.294387 116.958316 
L 131.380189 152.375682 
L 132.46599 122.372436 
L 133.551791 132.298322 
L 134.637592 127.786556 
L 135.723393 157.564213 
L 136.809194 211.705409 
L 137.894995 146.961562 
L 138.980797 149.668622 
L 140.066598 174.257748 
L 141.152399 114.928022 
L 142.2382 152.826858 
L 144.409802 157.789801 
L 145.495604 146.510386 
L 146.581405 148.766269 
L 147.667206 133.651852 
L 148.753007 108.160372 
L 149.838808 99.813604 
L 150.924609 193.658343 
L 152.01041 174.257748 
L 153.096212 134.554205 
L 154.182013 179.671868 
L 155.267814 152.150093 
L 156.353615 84.248011 
L 157.439416 164.331862 
L 158.525217 111.544197 
L 159.611019 178.995103 
L 160.69682 136.5845 
L 161.782621 131.847145 
L 162.868422 145.382444 
L 163.954223 120.116553 
L 166.125825 189.823342 
L 167.211627 200.425993 
L 168.297428 161.850391 
L 169.383229 163.880686 
L 170.46903 159.143331 
L 171.554831 156.210683 
L 172.640632 109.965079 
L 173.726434 189.372165 
L 174.812235 136.810088 
L 175.898036 188.018636 
L 176.983837 125.079496 
L 178.069638 123.951554 
L 179.155439 140.193913 
L 180.24124 147.863916 
L 181.327042 173.580983 
L 182.412843 105.002136 
L 183.498644 136.810088 
L 184.584445 152.60127 
L 185.670246 132.072733 
L 186.756047 122.146848 
L 187.841849 121.921259 
L 188.92765 123.725966 
L 190.013451 119.890964 
L 191.099252 138.614795 
L 192.185053 135.456558 
L 193.270854 128.688909 
L 194.356656 137.261265 
L 195.442457 150.119799 
L 196.528258 151.698917 
L 197.614059 113.348903 
L 198.69986 124.177142 
L 199.785661 129.591262 
L 200.871462 159.36892 
L 201.957264 146.059209 
L 203.043065 137.93803 
L 204.128866 148.315092 
L 205.214667 123.725966 
L 206.300468 125.079496 
L 207.386269 114.928022 
L 208.472071 137.261265 
L 209.557872 142.675384 
L 210.643673 180.574221 
L 211.729474 189.146577 
L 212.815275 190.04893 
L 213.901076 176.288043 
L 214.986877 165.459804 
L 216.072679 119.890964 
L 217.15848 88.759777 
L 218.244281 158.466566 
L 219.330082 167.264511 
L 220.415883 165.910981 
L 221.501684 208.321584 
L 222.587486 165.685392 
L 223.673287 143.803326 
L 224.759088 92.594778 
L 225.844889 115.379198 
L 226.93069 107.483607 
L 228.016491 156.210683 
L 229.102292 140.193913 
L 230.188094 165.910981 
L 231.273895 71.615065 
L 232.359696 121.695671 
L 233.445497 131.847145 
L 234.531298 115.830375 
L 235.617099 92.143602 
L 236.702901 157.789801 
L 237.788702 123.500378 
L 238.874503 146.735974 
L 239.960304 130.944792 
L 241.046105 123.725966 
L 242.131906 199.072463 
L 243.217708 158.692155 
L 244.303509 109.513902 
L 245.38931 159.594508 
L 246.475111 137.261265 
L 247.560912 175.160102 
L 248.646713 218.473058 
L 249.732514 136.810088 
L 250.818316 172.227453 
L 251.904117 125.756261 
L 254.075719 151.924505 
L 255.16152 129.591262 
L 256.247321 152.826858 
L 257.333123 190.274519 
L 258.418924 131.847145 
L 259.504725 155.30833 
L 260.590526 130.493615 
L 261.676327 132.072733 
L 262.762128 177.190396 
L 263.847929 203.358641 
L 264.933731 113.123315 
L 266.019532 107.258019 
L 267.105333 121.921259 
L 268.191134 145.156856 
L 269.276935 145.156856 
L 270.362736 89.887719 
L 271.448538 175.611278 
L 272.534339 169.745982 
L 273.62014 136.358911 
L 274.705941 160.948038 
L 275.791742 149.668622 
L 277.963344 175.836867 
L 279.049146 135.005382 
L 280.134947 137.93803 
L 281.220748 91.241249 
L 282.306549 105.904489 
L 283.39235 158.240978 
L 284.478151 84.022422 
L 285.563953 127.560967 
L 286.649754 165.685392 
L 287.735555 197.493345 
L 288.821356 158.240978 
L 289.907157 129.140085 
L 290.992958 184.409222 
L 292.07876 169.97157 
L 293.164561 142.224208 
L 294.250362 53.568 
L 295.336163 165.685392 
L 296.421964 143.803326 
L 297.507765 185.762752 
L 298.593566 107.258019 
L 299.679368 145.156856 
L 300.765169 159.820096 
L 301.85097 135.005382 
L 302.936771 136.358911 
L 304.022572 151.022152 
L 305.108373 127.786556 
L 306.194175 139.29156 
L 307.279976 156.887448 
L 308.365777 129.140085 
L 309.451578 114.476845 
L 310.537379 113.123315 
L 311.62318 89.887719 
L 312.708981 158.466566 
L 313.794783 156.887448 
L 314.880584 174.483337 
L 315.966385 171.550689 
L 317.052186 118.988611 
L 318.137987 120.567729 
L 319.223788 120.342141 
L 320.30959 143.803326 
L 321.395391 114.476845 
L 322.481192 111.769785 
L 323.566993 65.073004 
L 324.652794 155.30833 
L 325.738595 174.483337 
L 326.824396 196.139815 
L 327.910198 108.837137 
L 328.995999 184.409222 
L 330.0818 146.510386 
L 331.167601 130.493615 
L 332.253402 110.190667 
L 333.339203 151.022152 
L 334.425005 137.93803 
L 335.510806 104.325371 
L 336.596607 92.594778 
L 337.682408 146.735974 
L 338.768209 159.820096 
L 339.85401 151.022152 
L 340.939811 191.853637 
L 342.025613 206.291289 
L 343.111414 149.668622 
L 344.197215 183.055693 
L 345.283016 175.611278 
L 346.368817 172.904218 
L 347.454618 120.567729 
L 348.54042 134.779793 
L 349.626221 134.779793 
L 350.712022 187.567459 
L 351.797823 161.173626 
L 352.883624 159.820096 
L 353.969425 130.493615 
L 355.055227 108.611549 
L 356.141028 153.9548 
L 357.226829 183.055693 
L 358.31263 120.342141 
L 359.398431 152.60127 
L 360.484232 129.140085 
L 361.570033 146.510386 
L 362.655835 123.274789 
L 363.741636 159.594508 
L 364.827437 146.510386 
L 365.913238 124.628319 
L 366.999039 167.038922 
L 368.08484 165.459804 
L 369.170642 159.594508 
L 370.256443 188.6954 
L 371.342244 143.577738 
L 372.428045 212.156585 
L 373.513846 213.510115 
L 374.599647 172.904218 
L 375.685448 193.207167 
L 376.77125 149.443034 
L 377.857051 167.038922 
L 378.942852 153.9548 
L 380.028653 172.904218 
L 381.114454 161.173626 
L 382.200255 130.493615 
L 383.286057 130.493615 
L 384.371858 129.140085 
L 385.457659 148.089504 
L 386.54346 129.140085 
L 387.629261 168.392452 
L 388.715062 159.820096 
L 389.800863 183.281281 
L 390.886665 190.500107 
L 391.972466 212.156585 
L 393.058267 236.9713 
L 394.144068 251.408952 
L 395.229869 242.836596 
L 396.31567 242.836596 
L 397.401472 226.594237 
L 398.487273 212.156585 
L 398.487273 212.156585 
" clip-path="url(#p88173d3d1e)" style="fill: none; stroke: #ff0000; stroke-width: 1.5; stroke-linecap: square"/>
   </g>
   <g id="patch_3">
    <path d="M 57.6 307.584 
L 57.6 41.472 
" style="fill: none; stroke: #000000; stroke-width: 0.8; stroke-linejoin: miter; stroke-linecap: square"/>
   </g>
   <g id="patch_4">
    <path d="M 414.72 307.584 
L 414.72 41.472 
" style="fill: none; stroke: #000000; stroke-width: 0.8; stroke-linejoin: miter; stroke-linecap: square"/>
   </g>
   <g id="patch_5">
    <path d="M 57.6 307.584 
L 414.72 307.584 
" style="fill: none; stroke: #000000; stroke-width: 0.8; stroke-linejoin: miter; stroke-linecap: square"/>
   </g>
   <g id="patch_6">
    <path d="M 57.6 41.472 
L 414.72 41.472 
" style="fill: none; stroke: #000000; stroke-width: 0.8; stroke-linejoin: miter; stroke-linecap: square"/>
   </g>
   <g id="text_16">
    <!-- Population's average and best fitness -->
    <g transform="translate(123.529687 35.472)scale(0.12 -0.12)">
     <defs>
      <path id="DejaVuSans-50" d="M 1259 4147 
L 1259 2394 
L 2053 2394 
Q 2494 2394 2734 2622 
Q 2975 2850 2975 3272 
Q 2975 3691 2734 3919 
Q 2494 4147 2053 4147 
L 1259 4147 
z
M 628 4666 
L 2053 4666 
Q 2838 4666 3239 4311 
Q 3641 3956 3641 3272 
Q 3641 2581 3239 2228 
Q 2838 1875 2053 1875 
L 1259 1875 
L 1259 0 
L 628 0 
L 628 4666 
z
" transform="scale(0.015625)"/>
      <path id="DejaVuSans-70" d="M 1159 525 
L 1159 -1331 
L 581 -1331 
L 581 3500 
L 1159 3500 
L 1159 2969 
Q 1341 3281 1617 3432 
Q 1894 3584 2278 3584 
Q 2916 3584 3314 3078 
Q 3713 2572 3713 1747 
Q 3713 922 3314 415 
Q 2916 -91 2278 -91 
Q 1894 -91 1617 61 
Q 1341 213 1159 525 
z
M 3116 1747 
Q 3116 2381 2855 2742 
Q 2594 3103 2138 3103 
Q 1681 3103 1420 2742 
Q 1159 2381 1159 1747 
Q 1159 1113 1420 752 
Q 1681 391 2138 391 
Q 2594 391 2855 752 
Q 3116 1113 3116 1747 
z
" transform="scale(0.015625)"/>
      <path id="DejaVuSans-75" d="M 544 1381 
L 544 3500 
L 1119 3500 
L 1119 1403 
Q 1119 906 1312 657 
Q 1506 409 1894 409 
Q 2359 409 2629 706 
Q 2900 1003 2900 1516 
L 2900 3500 
L 3475 3500 
L 3475 0 
L 2900 0 
L 2900 538 
Q 2691 219 2414 64 
Q 2138 -91 1772 -91 
Q 1169 -91 856 284 
Q 544 659 544 1381 
z
M 1991 3584 
L 1991 3584 
z
" transform="scale(0.015625)"/>
      <path id="DejaVuSans-6c" d="M 603 4863 
L 1178 4863 
L 1178 0 
L 603 0 
L 603 4863 
z
" transform="scale(0.015625)"/>
      <path id="DejaVuSans-27" d="M 1147 4666 
L 1147 2931 
L 616 2931 
L 616 4666 
L 1147 4666 
z
" transform="scale(0.015625)"/>
      <path id="DejaVuSans-20" transform="scale(0.015625)"/>
      <path id="DejaVuSans-76" d="M 191 3500 
L 800 3500 
L 1894 563 
L 2988 3500 
L 3597 3500 
L 2284 0 
L 1503 0 
L 191 3500 
z
" transform="scale(0.015625)"/>
      <path id="DejaVuSans-67" d="M 2906 1791 
Q 2906 2416 2648 2759 
Q 2391 3103 1925 3103 
Q 1463 3103 1205 2759 
Q 947 2416 947 1791 
Q 947 1169 1205 825 
Q 1463 481 1925 481 
Q 2391 481 2648 825 
Q 2906 1169 2906 1791 
z
M 3481 434 
Q 3481 -459 3084 -895 
Q 2688 -1331 1869 -1331 
Q 1566 -1331 1297 -1286 
Q 1028 -1241 775 -1147 
L 775 -588 
Q 1028 -725 1275 -790 
Q 1522 -856 1778 -856 
Q 2344 -856 2625 -561 
Q 2906 -266 2906 331 
L 2906 616 
Q 2728 306 2450 153 
Q 2172 0 1784 0 
Q 1141 0 747 490 
Q 353 981 353 1791 
Q 353 2603 747 3093 
Q 1141 3584 1784 3584 
Q 2172 3584 2450 3431 
Q 2728 3278 2906 2969 
L 2906 3500 
L 3481 3500 
L 3481 434 
z
" transform="scale(0.015625)"/>
      <path id="DejaVuSans-64" d="M 2906 2969 
L 2906 4863 
L 3481 4863 
L 3481 0 
L 2906 0 
L 2906 525 
Q 2725 213 2448 61 
Q 2172 -91 1784 -91 
Q 1150 -91 751 415 
Q 353 922 353 1747 
Q 353 2572 751 3078 
Q 1150 3584 1784 3584 
Q 2172 3584 2448 3432 
Q 2725 3281 2906 2969 
z
M 947 1747 
Q 947 1113 1208 752 
Q 1469 391 1925 391 
Q 2381 391 2643 752 
Q 2906 1113 2906 1747 
Q 2906 2381 2643 2742 
Q 2381 3103 1925 3103 
Q 1469 3103 1208 2742 
Q 947 2381 947 1747 
z
" transform="scale(0.015625)"/>
      <path id="DejaVuSans-62" d="M 3116 1747 
Q 3116 2381 2855 2742 
Q 2594 3103 2138 3103 
Q 1681 3103 1420 2742 
Q 1159 2381 1159 1747 
Q 1159 1113 1420 752 
Q 1681 391 2138 391 
Q 2594 391 2855 752 
Q 3116 1113 3116 1747 
z
M 1159 2969 
Q 1341 3281 1617 3432 
Q 1894 3584 2278 3584 
Q 2916 3584 3314 3078 
Q 3713 2572 3713 1747 
Q 3713 922 3314 415 
Q 2916 -91 2278 -91 
Q 1894 -91 1617 61 
Q 1341 213 1159 525 
L 1159 0 
L 581 0 
L 581 4863 
L 1159 4863 
L 1159 2969 
z
" transform="scale(0.015625)"/>
      <path id="DejaVuSans-66" d="M 2375 4863 
L 2375 4384 
L 1825 4384 
Q 1516 4384 1395 4259 
Q 1275 4134 1275 3809 
L 1275 3500 
L 2222 3500 
L 2222 3053 
L 1275 3053 
L 1275 0 
L 697 0 
L 697 3053 
L 147 3053 
L 147 3500 
L 697 3500 
L 697 3744 
Q 697 4328 969 4595 
Q 1241 4863 1831 4863 
L 2375 4863 
z
" transform="scale(0.015625)"/>
     </defs>
     <use xlink:href="#DejaVuSans-50"/>
     <use xlink:href="#DejaVuSans-6f" x="56.677734"/>
     <use xlink:href="#DejaVuSans-70" x="117.859375"/>
     <use xlink:href="#DejaVuSans-75" x="181.335938"/>
     <use xlink:href="#DejaVuSans-6c" x="244.714844"/>
     <use xlink:href="#DejaVuSans-61" x="272.498047"/>
     <use xlink:href="#DejaVuSans-74" x="333.777344"/>
     <use xlink:href="#DejaVuSans-69" x="372.986328"/>
     <use xlink:href="#DejaVuSans-6f" x="400.769531"/>
     <use xlink:href="#DejaVuSans-6e" x="461.951172"/>
     <use xlink:href="#DejaVuSans-27" x="525.330078"/>
     <use xlink:href="#DejaVuSans-73" x="552.820312"/>
     <use xlink:href="#DejaVuSans-20" x="604.919922"/>
     <use xlink:href="#DejaVuSans-61" x="636.707031"/>
     <use xlink:href="#DejaVuSans-76" x="697.986328"/>
     <use xlink:href="#DejaVuSans-65" x="757.166016"/>
     <use xlink:href="#DejaVuSans-72" x="818.689453"/>
     <use xlink:href="#DejaVuSans-61" x="859.802734"/>
     <use xlink:href="#DejaVuSans-67" x="921.082031"/>
     <use xlink:href="#DejaVuSans-65" x="984.558594"/>
     <use xlink:href="#DejaVuSans-20" x="1046.082031"/>
     <use xlink:href="#DejaVuSans-61" x="1077.869141"/>
     <use xlink:href="#DejaVuSans-6e" x="1139.148438"/>
     <use xlink:href="#DejaVuSans-64" x="1202.527344"/>
     <use xlink:href="#DejaVuSans-20" x="1266.003906"/>
     <use xlink:href="#DejaVuSans-62" x="1297.791016"/>
     <use xlink:href="#DejaVuSans-65" x="1361.267578"/>
     <use xlink:href="#DejaVuSans-73" x="1422.791016"/>
     <use xlink:href="#DejaVuSans-74" x="1474.890625"/>
     <use xlink:href="#DejaVuSans-20" x="1514.099609"/>
     <use xlink:href="#DejaVuSans-66" x="1545.886719"/>
     <use xlink:href="#DejaVuSans-69" x="1581.091797"/>
     <use xlink:href="#DejaVuSans-74" x="1608.875"/>
     <use xlink:href="#DejaVuSans-6e" x="1648.083984"/>
     <use xlink:href="#DejaVuSans-65" x="1711.462891"/>
     <use xlink:href="#DejaVuSans-73" x="1772.986328"/>
     <use xlink:href="#DejaVuSans-73" x="1825.085938"/>
    </g>
   </g>
   <g id="legend_1">
    <g id="patch_7">
     <path d="M 64.6 108.1845 
L 137.540625 108.1845 
Q 139.540625 108.1845 139.540625 106.1845 
L 139.540625 48.472 
Q 139.540625 46.472 137.540625 46.472 
L 64.6 46.472 
Q 62.6 46.472 62.6 48.472 
L 62.6 106.1845 
Q 62.6 108.1845 64.6 108.1845 
z
" style="fill: #ffffff; opacity: 0.8; stroke: #cccccc; stroke-linejoin: miter"/>
    </g>
    <g id="line2d_31">
     <path d="M 66.6 54.570438 
L 76.6 54.570438 
L 86.6 54.570438 
" style="fill: none; stroke: #0000ff; stroke-width: 1.5; stroke-linecap: square"/>
    </g>
    <g id="text_17">
     <!-- average -->
     <g transform="translate(94.6 58.070438)scale(0.1 -0.1)">
      <use xlink:href="#DejaVuSans-61"/>
      <use xlink:href="#DejaVuSans-76" x="61.279297"/>
      <use xlink:href="#DejaVuSans-65" x="120.458984"/>
      <use xlink:href="#DejaVuSans-72" x="181.982422"/>
      <use xlink:href="#DejaVuSans-61" x="223.095703"/>
      <use xlink:href="#DejaVuSans-67" x="284.375"/>
      <use xlink:href="#DejaVuSans-65" x="347.851562"/>
     </g>
    </g>
    <g id="line2d_32">
     <path d="M 66.6 69.248563 
L 76.6 69.248563 
L 86.6 69.248563 
" style="fill: none; stroke-dasharray: 9.6,2.4,1.5,2.4; stroke-dashoffset: 0; stroke: #008000; stroke-width: 1.5"/>
    </g>
    <g id="text_18">
     <!-- -1 sd -->
     <g transform="translate(94.6 72.748563)scale(0.1 -0.1)">
      <defs>
       <path id="DejaVuSans-2d" d="M 313 2009 
L 1997 2009 
L 1997 1497 
L 313 1497 
L 313 2009 
z
" transform="scale(0.015625)"/>
      </defs>
      <use xlink:href="#DejaVuSans-2d"/>
      <use xlink:href="#DejaVuSans-31" x="36.083984"/>
      <use xlink:href="#DejaVuSans-20" x="99.707031"/>
      <use xlink:href="#DejaVuSans-73" x="131.494141"/>
      <use xlink:href="#DejaVuSans-64" x="183.59375"/>
     </g>
    </g>
    <g id="line2d_33">
     <path d="M 66.6 83.926688 
L 76.6 83.926688 
L 86.6 83.926688 
" style="fill: none; stroke-dasharray: 9.6,2.4,1.5,2.4; stroke-dashoffset: 0; stroke: #008000; stroke-width: 1.5"/>
    </g>
    <g id="text_19">
     <!-- +1 sd -->
     <g transform="translate(94.6 87.426688)scale(0.1 -0.1)">
      <defs>
       <path id="DejaVuSans-2b" d="M 2944 4013 
L 2944 2272 
L 4684 2272 
L 4684 1741 
L 2944 1741 
L 2944 0 
L 2419 0 
L 2419 1741 
L 678 1741 
L 678 2272 
L 2419 2272 
L 2419 4013 
L 2944 4013 
z
" transform="scale(0.015625)"/>
      </defs>
      <use xlink:href="#DejaVuSans-2b"/>
      <use xlink:href="#DejaVuSans-31" x="83.789062"/>
      <use xlink:href="#DejaVuSans-20" x="147.412109"/>
      <use xlink:href="#DejaVuSans-73" x="179.199219"/>
      <use xlink:href="#DejaVuSans-64" x="231.298828"/>
     </g>
    </g>
    <g id="line2d_34">
     <path d="M 66.6 98.604813 
L 76.6 98.604813 
L 86.6 98.604813 
" style="fill: none; stroke: #ff0000; stroke-width: 1.5; stroke-linecap: square"/>
    </g>
    <g id="text_20">
     <!-- best -->
     <g transform="translate(94.6 102.104813)scale(0.1 -0.1)">
      <use xlink:href="#DejaVuSans-62"/>
      <use xlink:href="#DejaVuSans-65" x="63.476562"/>
      <use xlink:href="#DejaVuSans-73" x="125"/>
      <use xlink:href="#DejaVuSans-74" x="177.099609"/>
     </g>
    </g>
   </g>
  </g>
 </g>
 <defs>
  <clipPath id="p88173d3d1e">
   <rect x="57.6" y="41.472" width="357.12" height="266.112"/>
  </clipPath>
 </defs>
</svg>
